<svg width="92" height="118" viewBox="0 0 92 118" fill="none" xmlns="http://www.w3.org/2000/svg">
<path d="M9.90115 34.834L9.95278 34.6184C9.90115 34.5619 9.90115 34.6184 9.90115 34.834Z" fill="#414042"/>
<path d="M13.5153 37.0307C15.1881 37.2975 20.9655 37.5696 24.0427 37.5696C24.7449 37.5696 25.3386 37.5696 25.6639 37.5182C26.3144 37.4669 26.8514 36.8202 26.8514 36.1222C26.8514 35.2651 26.0976 34.7826 25.3386 34.834C23.7742 34.9418 15.9987 34.6749 13.8405 34.3515L12.7615 34.1924C13.2468 32.0984 17.243 7.41646 18.0536 1.72458C18.162 0.975242 17.5115 0.169449 16.7577 0.169449C16.1071 0.169449 15.4617 0.651899 15.4101 1.29859C15.3585 1.72971 10.5001 31.7237 9.95795 34.6235C10.0664 34.8391 10.2264 35.9118 10.3916 36.0709C10.9802 36.656 12.0593 36.8202 13.5153 37.0307Z" fill="#FBB040"/>
<path d="M24.6932 32.2575C27.7291 32.2575 31.9318 30.7331 35.2155 27.2995C35.9177 29.9889 37.4562 31.775 40.2443 31.775C44.132 31.775 46.9924 28.6648 48.3967 25.8163C48.5051 25.6571 48.5051 25.4416 48.5051 25.2825C48.5051 24.8514 48.3451 24.4254 47.9114 24.1533C47.6945 23.9942 47.4777 23.9378 47.266 23.9378C46.7239 23.9378 46.1869 24.2611 46.0269 24.6358C45.1646 26.9454 43.1666 29.1421 40.4147 29.1421C37.9829 29.1421 37.4459 25.9754 37.4459 23.132C37.4459 19.6419 38.1997 15.2947 39.1755 11.5429C40.9051 11.2196 42.5212 10.6294 44.4676 10.0956C45.0614 9.93647 45.4383 9.39757 45.4383 8.80733C45.4383 7.89376 44.5193 7.19575 43.7087 7.51909C42.0359 8.16065 41.2253 8.32489 39.9861 8.64823C40.4715 6.98532 40.9568 5.7484 41.3337 4.99906C41.3853 4.7835 41.4421 4.56794 41.4421 4.40883C41.4421 3.8186 41.1168 3.33615 40.5799 3.12059C40.2546 2.96148 39.2323 3.06926 38.9071 3.8186C38.3133 4.94774 37.6679 6.76976 36.9658 9.23846C35.1329 9.5618 33.5117 9.72091 32.159 9.72091C31.3484 9.72091 30.8114 10.3111 30.8114 11.0605C30.8114 11.8098 31.3536 12.4 32.159 12.4C33.4033 12.4 34.7508 12.2923 36.2636 12.0767C35.453 15.3512 34.7508 19.375 34.7508 22.9729C34.7508 23.2449 34.756 23.5118 34.7663 23.7787C34.663 23.8762 34.5701 23.984 34.4823 24.0969C31.8905 27.3149 27.5742 29.6245 24.6571 29.6245C22.0653 29.6245 20.9294 27.746 20.9294 25.8676C25.5193 24.3638 30.3209 21.6282 30.3209 18.0868C30.3209 15.9928 28.5913 14.5454 26.49 14.5454C21.9 14.5454 18.2291 20.8788 18.2291 25.6007C18.2136 29.4654 20.8571 32.2575 24.6932 32.2575ZM26.5261 17.2297C27.2283 17.2297 27.6052 17.553 27.6052 18.0355C27.6052 18.4666 27.3367 19.0004 26.7946 19.6471C25.7672 20.7762 23.9343 21.8489 21.3941 22.8651C22.153 20.7711 23.9343 17.2297 26.5261 17.2297Z" fill="#FBB040"/>
<path d="M47.7926 4.2446C47.8442 4.78351 47.901 5.58417 47.3589 6.65685C47.2505 6.81596 47.2505 7.03152 47.2505 7.19576C47.2505 7.41132 47.4105 7.57043 47.6274 7.5191C47.679 7.5191 47.7358 7.46778 47.7874 7.46778C47.9475 7.41645 48.1643 7.25221 48.3812 7.09311C49.3518 6.12821 50.7562 3.87507 50.4309 1.94014C50.1056 0.651892 49.2951 -0.0974442 48.3812 0.0103371C46.9252 0.118118 46.3831 1.45769 46.5999 2.80239C46.7135 3.43881 47.1989 3.97772 47.7926 4.2446Z" fill="#FBB040"/>
<path d="M51.8972 33.9204C51.8972 37.0871 54.2722 39.3967 57.4062 39.3967C60.2665 39.3967 62.7499 37.2514 62.7499 34.4593C62.7499 32.9042 61.9961 31.2926 60.7518 29.7375C60.3749 29.255 59.9412 28.7726 59.4043 28.2901C60.4833 27.8077 63.1836 27.4843 64.6964 27.4843C66.3692 27.4843 68.2072 27.4843 69.8233 28.1259C69.9833 28.1772 70.1485 28.2336 70.3086 28.2336C70.7939 28.2336 71.2276 27.9103 71.4444 27.2123C71.6613 26.5143 71.2276 25.7649 70.5254 25.5494C68.5273 24.9591 66.586 24.8 64.6964 24.8C62.4814 24.8 59.3526 25.1747 57.3545 26.1961L56.4355 25.2312C55.5165 24.2663 54.5975 23.0858 54.5975 21.582C54.5975 19.8113 56.6472 17.0757 58.8105 17.0757C59.7295 17.0757 60.6486 17.5582 60.6486 18.7951C60.6486 19.6522 60.1064 20.7813 60.1064 21.156C60.1064 21.854 60.6486 22.4956 61.454 22.4956C61.9961 22.4956 62.4814 22.1722 62.6931 21.6385C63.1268 20.6171 63.3437 19.6522 63.3437 18.7386C63.3437 16.1108 61.4024 14.3914 58.9189 14.3914C55.248 14.3914 51.9024 18.0406 51.9024 21.582C51.9024 23.7838 52.8214 25.1798 54.4374 27.0019L54.9795 27.6434C53.0331 29.2499 51.8972 31.5595 51.8972 33.9204ZM56.9157 29.5219C58.1548 30.8101 60.0445 32.6886 60.0445 34.3515C60.0445 35.7475 58.8054 36.7689 57.401 36.7689C55.9967 36.7689 54.5923 35.6962 54.5923 33.8177C54.5975 32.3653 55.3513 30.7024 56.9157 29.5219Z" fill="#FBB040"/>
<path d="M89.768 25.5904C86.9748 23.2192 82.7463 23.6966 80.5572 26.6323L61.6605 51.9661C61.201 52.5871 61.2423 53.4288 61.7328 53.9985L60.4937 55.4459C59.6314 56.4518 58.1651 56.6468 57.0396 55.9488C42.5315 46.9773 23.0256 50.1235 12.271 64.3096C2.19791 77.5975 3.56611 96.5208 15.4566 108.228C29.5671 122.116 52.2793 120.961 64.9287 106.221C75.9053 93.4311 75.5232 74.8157 64.7635 62.4978C63.8961 61.5073 63.8703 60.0394 64.7273 59.0386L65.9716 57.5912C66.6118 57.9813 67.4586 57.894 68.0007 57.3449L90.1914 34.8032C92.7574 32.1908 92.5664 27.9616 89.768 25.5904ZM57.9431 105.672C57.3494 106.17 56.6007 106.755 55.7437 107.417C54.8247 107.992 53.8437 108.731 52.6407 109.316C52.0521 109.629 51.448 109.973 50.7717 110.23C50.4412 110.368 50.1056 110.512 49.7597 110.661C49.5893 110.733 49.4138 110.804 49.2434 110.881C49.0679 110.948 48.882 110.999 48.7013 111.061C48.3399 111.179 47.9682 111.297 47.5964 111.42C47.2195 111.538 46.8478 111.682 46.4554 111.759C46.063 111.851 45.6654 111.944 45.2679 112.036C44.8652 112.118 44.4676 112.247 44.0546 112.288C43.6415 112.349 43.2233 112.406 42.8051 112.467C42.3869 112.524 41.9636 112.606 41.535 112.616C41.1065 112.642 40.6728 112.667 40.2391 112.688C39.8054 112.714 39.3666 112.744 38.9277 112.719C37.1723 112.698 35.3859 112.555 33.6356 112.206L32.3242 111.934C32.1022 111.892 31.8905 111.836 31.6788 111.764L31.0386 111.569C30.6152 111.441 30.1918 111.312 29.7685 111.184C29.3503 111.046 28.9476 110.861 28.5397 110.702C28.1318 110.537 27.7291 110.373 27.3264 110.209C26.934 110.024 26.5519 109.819 26.1698 109.624C25.7878 109.429 25.4057 109.234 25.0288 109.039C24.6674 108.823 24.3163 108.587 23.9601 108.366C22.5247 107.514 21.2546 106.509 20.1136 105.492C18.9777 104.471 17.9864 103.419 17.1397 102.387C16.293 101.356 15.5908 100.36 15.0177 99.4412C14.4549 98.5173 13.9954 97.6961 13.6598 96.9981C13.3191 96.3001 13.0712 95.7458 12.9164 95.3609C12.7563 94.9759 12.6737 94.7706 12.6737 94.7706L12.8183 94.7142C12.8183 94.7142 12.9267 94.9092 13.128 95.2736C13.3191 95.638 13.6443 96.1564 14.0419 96.8133C14.4394 97.4703 14.9712 98.235 15.5908 99.0922C16.2259 99.939 16.9848 100.858 17.8625 101.802C18.7454 102.741 19.7625 103.696 20.8932 104.63C21.4612 105.097 22.0704 105.544 22.6796 105.97C22.8449 106.083 23.0152 106.19 23.1805 106.303L23.4334 106.473L23.5574 106.56C23.5625 106.56 23.6296 106.601 23.6658 106.621C24.0014 106.822 24.3421 107.022 24.6829 107.227C25.0237 107.427 25.3644 107.638 25.7155 107.838C26.0821 108.012 26.4487 108.187 26.8152 108.361C27.187 108.536 27.5484 108.721 27.9253 108.885C28.3073 109.034 28.6946 109.183 29.0818 109.337C29.469 109.48 29.8511 109.655 30.2538 109.778C30.6565 109.896 31.0592 110.009 31.462 110.127L32.066 110.301C32.2674 110.363 32.4687 110.419 32.6804 110.45L33.9247 110.697C35.5769 111.046 37.2704 111.205 38.9329 111.241C39.3511 111.271 39.7641 111.246 40.1771 111.23C40.5902 111.22 41.0032 111.21 41.4111 111.194C41.8242 111.2 42.2217 111.128 42.6244 111.092C43.0271 111.046 43.4247 110.999 43.8222 110.958C44.6122 110.861 45.3712 110.65 46.1353 110.532C46.5173 110.476 46.8788 110.353 47.2453 110.26C47.6067 110.163 47.9682 110.06 48.3244 109.968C48.4999 109.916 48.6807 109.875 48.851 109.819C49.0214 109.757 49.1918 109.696 49.357 109.629C49.6926 109.506 50.023 109.383 50.3483 109.27C51.0143 109.064 51.6184 108.767 52.207 108.5C52.7956 108.233 53.3687 107.987 53.8747 107.684C54.3961 107.402 54.8918 107.13 55.3564 106.878C56.229 106.298 57.0138 105.811 57.6488 105.369C58.2529 104.882 58.7537 104.522 59.0842 104.266C59.4146 104.014 59.5953 103.876 59.5953 103.876L59.7037 103.983C59.7037 103.994 59.0635 104.604 57.9431 105.672ZM31.6633 104.42C15.565 95.9665 14.7699 66.8245 27.662 65.3001C37.4356 64.1453 35.6956 74.867 40.5799 75.8935C43.7551 76.5607 55.7901 66.3985 60.7983 77.7976C67.1798 92.3379 47.7616 112.873 31.6633 104.42ZM64.7377 71.7978C65.0784 72.4958 65.3263 73.0501 65.4811 73.4351C65.6412 73.82 65.7238 74.0253 65.7238 74.0253L65.5792 74.0818C65.5792 74.0818 65.4708 73.8867 65.2695 73.5223C65.0784 73.1579 64.7532 72.6395 64.3608 71.9826C63.9632 71.3256 63.4314 70.5609 62.8119 69.7038C62.1768 68.8569 61.4178 67.9382 60.5401 66.9939C59.6572 66.0546 58.6401 65.1 57.5094 64.1659C56.9415 63.6988 56.3323 63.2523 55.723 62.8263C55.5578 62.7134 55.3874 62.6056 55.2222 62.4927L54.9692 62.3182L54.8453 62.2309C54.8401 62.2309 54.773 62.1899 54.7369 62.1694C54.4013 61.9692 54.0605 61.769 53.7198 61.5637C53.379 61.3636 53.0382 61.1531 52.6872 60.953C52.3206 60.7785 51.954 60.604 51.5874 60.4295C51.2157 60.255 50.8543 60.0702 50.4774 59.906C50.0953 59.7571 49.7081 59.6083 49.3209 59.4543C48.9336 59.3106 48.5516 59.1361 48.1489 59.0129C47.7461 58.8949 47.3434 58.7819 46.9407 58.6639L46.3366 58.4894C46.1353 58.4278 45.9339 58.3713 45.7222 58.3354L44.4779 58.0891C42.8258 57.7401 41.1323 57.581 39.4698 57.545C39.0516 57.5142 38.6386 57.5399 38.2255 57.5553C37.8125 57.5656 37.3994 57.5758 36.9916 57.5912C36.5785 57.5861 36.181 57.6579 35.7782 57.6939C35.3755 57.7401 34.978 57.7863 34.5804 57.8273C33.7905 57.9248 33.0315 58.1353 32.2674 58.2533C31.8853 58.3098 31.5239 58.4329 31.1573 58.5253C30.7959 58.6228 30.4345 58.7255 30.0783 58.8179C29.9027 58.8692 29.722 58.9103 29.5516 58.9667C29.3813 59.0283 29.2109 59.0899 29.0457 59.1566C28.7101 59.2798 28.3796 59.403 28.0544 59.5159C27.3883 59.7212 26.7842 60.0189 26.1957 60.2858C25.6071 60.5526 25.034 60.799 24.528 61.1018C24.0065 61.3841 23.5109 61.6561 23.0462 61.9076C22.1737 62.4876 21.3889 62.9752 20.7538 63.4165C20.1498 63.9041 19.6489 64.2634 19.3185 64.52C18.9881 64.7715 18.8074 64.9049 18.8074 64.9049L18.6989 64.7972C18.6989 64.7972 19.3392 64.1864 20.4595 63.1189C21.0533 62.621 21.8019 62.0359 22.659 61.3738C23.578 60.799 24.559 60.0599 25.762 59.4748C26.3506 59.1617 26.9546 58.8179 27.631 58.5612C27.9614 58.4227 28.297 58.279 28.6429 58.1301C28.8133 58.0583 28.9889 57.9864 29.1592 57.9094C29.3348 57.8427 29.5207 57.7914 29.7014 57.7298C30.0628 57.6117 30.4345 57.4937 30.8062 57.3705C31.1831 57.2525 31.5549 57.1088 31.9473 57.0318C32.3397 56.9394 32.7372 56.847 33.1348 56.7546C33.5375 56.6725 33.935 56.5442 34.3481 56.5031C34.7611 56.4416 35.1793 56.3851 35.5975 56.3235C36.0157 56.267 36.4391 56.1849 36.8676 56.1747C37.2962 56.149 37.7299 56.1233 38.1636 56.1028C38.5973 56.0771 39.0361 56.0464 39.475 56.072C41.2304 56.0925 43.0168 56.2363 44.7671 56.5853L46.0785 56.8573C46.3005 56.8983 46.5122 56.9548 46.7239 57.0266L47.3641 57.2217C47.7874 57.35 48.2108 57.4783 48.6342 57.6066C49.0524 57.7452 49.4551 57.93 49.863 58.0891C50.2709 58.2533 50.6736 58.4175 51.0763 58.5818C51.4687 58.7665 51.8507 58.9718 52.2328 59.1669C52.6149 59.3619 52.9969 59.5569 53.3738 59.752C53.7353 59.9675 54.0863 60.2036 54.4426 60.4243C55.8779 61.2763 57.148 62.2823 58.289 63.2985C59.4249 64.3199 60.4162 65.372 61.263 66.4036C62.1097 67.4352 62.8119 68.4309 63.385 69.3496C63.9426 70.2786 64.4021 71.0998 64.7377 71.7978ZM87.0678 32.2318C86.252 33.1813 84.8115 33.2994 83.8564 32.4833C82.9012 31.6724 82.7824 30.2404 83.6034 29.2909C84.4191 28.3414 85.8596 28.2234 86.8148 29.0394C87.7699 29.8504 87.8835 31.2772 87.0678 32.2318Z" fill="#58595B"/>
<path d="M77.3819 80.2099C77.32 79.8044 77.258 79.399 77.2012 78.9986C76.9637 77.387 76.5197 75.837 76.0653 74.3589C75.8072 73.6301 75.6007 72.8962 75.2857 72.2187C75.1412 71.8748 74.9966 71.5412 74.8572 71.2024C74.7075 70.874 74.5474 70.5506 74.3925 70.2324C74.0931 69.596 73.7781 68.9852 73.4425 68.4155C73.1224 67.8356 72.7662 67.3018 72.4357 66.7885C72.1105 66.2702 71.7749 65.7929 71.4341 65.3463C71.2689 65.1256 71.1037 64.9101 70.9436 64.6996C70.7732 64.4943 70.6132 64.2993 70.4531 64.1094C69.8439 63.3344 69.2192 62.7185 68.7338 62.2053C68.4912 61.9435 68.2588 61.7382 68.0575 61.5586C67.8561 61.3789 67.6806 61.225 67.5412 61.0967C67.2624 60.8452 67.1127 60.7117 67.1127 60.7117L66.9578 60.8349C66.9578 60.8349 67.0817 60.9889 67.314 61.2763C67.5412 61.5688 67.9078 61.9794 68.3105 62.5337C68.7184 63.0881 69.2243 63.7604 69.7406 64.5713C69.8749 64.7715 70.0091 64.9768 70.1485 65.1924C70.2776 65.413 70.4118 65.6389 70.5512 65.8698C70.8249 66.3318 71.1192 66.8193 71.3876 67.348C71.6613 67.8715 71.9607 68.4104 72.2189 68.9955C72.3531 69.2829 72.4925 69.5755 72.6319 69.8783C72.7662 70.176 72.8849 70.489 73.014 70.8021C73.1379 71.1152 73.2773 71.4334 73.3961 71.7568C73.5096 72.0852 73.6284 72.4137 73.742 72.7524C73.995 73.4197 74.1757 74.1228 74.3874 74.826C74.5887 75.5342 74.7488 76.2682 74.9191 77.0072C75.0482 77.7566 75.2289 78.5059 75.3115 79.2758C75.3632 79.6607 75.4148 80.0456 75.4664 80.4306C75.4974 80.8206 75.5335 81.2056 75.5645 81.5956C75.6471 82.3758 75.642 83.161 75.673 83.9463C75.6781 84.7316 75.673 85.5168 75.6368 86.3021C75.5749 87.0874 75.5542 87.8572 75.4458 88.6322C75.2702 90.172 75.0069 91.6706 74.6558 93.1077C74.3048 94.5397 73.8762 95.9049 73.4064 97.1726C72.9417 98.4455 72.4048 99.6105 71.8885 100.673C71.3515 101.725 70.83 102.68 70.3137 103.491C70.0659 103.901 69.8181 104.281 69.5857 104.625C69.3586 104.974 69.1417 105.287 68.9352 105.564C68.5377 106.129 68.202 106.555 67.9697 106.847C67.7425 107.14 67.6186 107.294 67.6186 107.294L67.7735 107.417C67.7735 107.417 67.9232 107.278 68.1969 107.027C68.4757 106.77 68.8939 106.401 69.3689 105.877C69.6167 105.626 69.88 105.333 70.1588 105.01C70.448 104.692 70.7371 104.332 71.0417 103.942C71.6664 103.172 72.3067 102.254 72.952 101.207C73.5871 100.16 74.248 98.9946 74.8056 97.7013C75.3787 96.413 75.9259 95.017 76.3441 93.5234C76.5507 92.7792 76.752 92.0145 76.9172 91.2344C77.0876 90.4696 77.2477 89.592 77.3303 88.8478L77.4026 88.2678C77.4387 88.0163 77.4439 87.847 77.4645 87.6314C77.5007 87.2208 77.5316 86.8102 77.5678 86.3996C77.6091 85.989 77.5988 85.5733 77.6194 85.1627C77.6246 84.747 77.6607 84.3364 77.6401 83.9206C77.5936 83.0943 77.5833 82.2629 77.4852 81.4417C77.4645 81.0311 77.4232 80.6205 77.3819 80.2099Z" fill="#58595B"/>
<path d="M11.4346 107.874C11.2384 107.638 11.0318 107.391 10.8098 107.124C10.6033 106.852 10.3865 106.565 10.1541 106.262C9.68429 105.672 9.22994 104.994 8.74978 104.281C8.50196 103.932 8.27478 103.547 8.04245 103.157C7.81527 102.767 7.55712 102.382 7.34027 101.966C7.11826 101.551 6.89625 101.13 6.66908 100.704C6.43674 100.278 6.25087 99.8261 6.03919 99.3796C5.82751 98.933 5.62099 98.4814 5.44544 98.0143C5.26474 97.5473 5.06854 97.0905 4.89816 96.6183C4.73294 96.1461 4.57289 95.6739 4.40767 95.2018C4.23729 94.7347 4.12371 94.2471 3.98431 93.7749C3.8449 93.3028 3.71583 92.8306 3.61773 92.3584C3.51447 91.8862 3.41121 91.4192 3.30795 90.9624C3.16338 90.0334 2.97235 89.1455 2.90523 88.2884C2.85877 87.8624 2.8123 87.4466 2.77099 87.0412C2.75034 86.6357 2.72969 86.2456 2.70904 85.871C2.65741 85.1216 2.66257 84.4339 2.66257 83.8231C2.66257 83.5152 2.66257 83.2329 2.66257 82.966C2.67806 82.7043 2.68839 82.4579 2.70387 82.2423C2.7555 81.3647 2.78132 80.8668 2.78132 80.8668L2.58513 80.8463C2.58513 80.8463 2.54382 80.9695 2.46638 81.2005C2.39409 81.4314 2.27534 81.7702 2.15659 82.2115C2.09464 82.4322 2.02752 82.6735 1.95524 82.9404C1.89328 83.2072 1.84681 83.4998 1.79002 83.8129C1.73323 84.1259 1.67643 84.4596 1.60931 84.8137C1.54219 85.1678 1.53703 85.5374 1.49573 85.9274C1.46475 86.3175 1.42861 86.7281 1.39247 87.149C1.38214 87.5698 1.39763 88.0061 1.39763 88.4577C1.38214 89.361 1.47507 90.3105 1.5835 91.2908C1.66094 91.7784 1.73839 92.2711 1.821 92.7741C1.8623 93.0256 1.89844 93.2771 1.95007 93.5286C2.01203 93.7801 2.07399 94.0264 2.13594 94.2779C2.27018 94.7758 2.36828 95.2941 2.54382 95.792C2.70904 96.2898 2.87425 96.7928 3.03947 97.2907C3.22534 97.7834 3.43702 98.2658 3.63322 98.7534C3.81909 99.2461 4.06175 99.708 4.29925 100.175C4.73811 101.114 5.30604 101.971 5.81202 102.813C6.07017 103.234 6.34897 103.629 6.63294 104.009C6.91691 104.389 7.18538 104.764 7.48484 105.107C7.77397 105.451 8.04761 105.795 8.33158 106.113C8.61038 106.432 8.915 106.714 9.18864 106.991C9.46744 107.268 9.72043 107.54 9.98891 107.781C10.2677 108.012 10.5259 108.233 10.7737 108.443C11.0215 108.649 11.2435 108.844 11.4655 109.013C11.6824 109.183 11.8941 109.316 12.0748 109.444C12.4413 109.706 12.7511 109.891 12.9525 110.024C13.159 110.153 13.2726 110.219 13.2726 110.219L13.4223 110.086C13.4223 110.086 13.0764 109.716 12.4775 109.07C12.1677 108.751 11.8218 108.346 11.4346 107.874Z" fill="#58595B"/>
<path d="M44.86 85.8196C41.0703 85.0241 37.3478 87.4312 36.5424 91.1984C35.7421 94.9657 38.1636 98.6662 41.9532 99.4668C45.7429 100.262 49.4654 97.8552 50.2709 94.088C51.0763 90.3208 48.6548 86.6152 44.86 85.8196ZM42.0203 90.5158C40.838 91.2806 39.5576 91.4037 39.1549 90.7878C38.7521 90.172 39.3872 89.0582 40.5644 88.2935C41.7467 87.5287 43.0271 87.4056 43.4299 88.0215C43.8326 88.6374 43.1975 89.7511 42.0203 90.5158Z" fill="#FBB040"/>
<path d="M12.5911 47.5522C13.7579 47.5522 14.5737 46.9978 15.1003 46.2177L14.4137 45.6634C13.9954 46.2588 13.4843 46.695 12.5911 46.695C11.574 46.695 10.7789 45.8533 10.7789 44.7242C10.7789 43.4667 11.6256 42.7225 12.5291 42.7225C13.4482 42.7225 14.0006 43.2409 14.3052 43.8979L14.9919 43.8363V41.9989H14.0419V42.5686C13.6444 42.1374 13.0971 41.8859 12.3743 41.8859C10.9338 41.8859 9.67915 43.0305 9.67915 44.7396C9.67399 46.3563 10.9544 47.5522 12.5911 47.5522Z" fill="#58595B"/>
<path d="M17.4495 44.7242C17.4495 46.346 18.699 47.5522 20.377 47.5522C22.0291 47.5522 23.2837 46.346 23.2837 44.7242C23.2837 43.1023 22.0291 41.8859 20.377 41.8859C18.699 41.8911 17.4495 43.1023 17.4495 44.7242ZM22.1737 44.7242C22.1737 45.8277 21.4612 46.695 20.377 46.695C19.2514 46.695 18.5544 45.8431 18.5544 44.7242C18.5544 43.6207 19.2514 42.7482 20.377 42.7482C21.4612 42.7482 22.1737 43.6053 22.1737 44.7242Z" fill="#58595B"/>
<path d="M25.7568 44.7242C25.7568 46.346 27.0063 47.5522 28.6843 47.5522C30.3364 47.5522 31.5911 46.346 31.5911 44.7242C31.5911 43.1023 30.3364 41.8859 28.6843 41.8859C27.0063 41.8911 25.7568 43.1023 25.7568 44.7242ZM30.481 44.7242C30.481 45.8277 29.7685 46.695 28.6843 46.695C27.5587 46.695 26.8617 45.8431 26.8617 44.7242C26.8617 43.6207 27.5587 42.7482 28.6843 42.7482C29.7685 42.7482 30.481 43.6053 30.481 44.7242Z" fill="#58595B"/>
<path d="M37.8331 47.4495H40.5128V46.618H39.888L37.8331 44.3854L39.7228 42.8354H40.3785V41.9988H37.7144V42.8354H38.5456L35.9899 44.9397V42.8354H36.8935V41.9988H33.966V42.8354H34.9264V46.618H33.966V47.4495H36.8935V46.618H35.9899V45.8944L37.1 44.9859L38.5456 46.618H37.8331V47.4495Z" fill="#58595B"/>
<path d="M45.6087 42.8354V41.9988H42.6193V42.8354H43.5744V46.618H42.6193V47.4495H45.6087V46.618H44.638V42.8354H45.6087Z" fill="#58595B"/>
<path d="M53.5287 47.506L54.0812 47.4957V42.8354H55.0054V41.9988H52.1451V42.8354H53.1054V45.6891L49.8733 41.9988H47.9165V42.8354H48.8769V46.618H47.9165V47.4495H50.8182V46.618H49.8733V43.4411L53.5287 47.506Z" fill="#58595B"/>
<path d="M60.189 42.7225C61.0926 42.7225 61.6915 43.246 62.0116 43.8003L62.6931 43.7541V41.9989H61.7638V42.5686C61.3249 42.158 60.7105 41.8859 59.9361 41.8859C58.4439 41.8859 57.2203 43.1023 57.2203 44.7242C57.2203 46.3512 58.3871 47.5624 60.2149 47.5624C61.2681 47.5624 62.1665 47.1826 62.6931 46.7104V44.5805H60.1271V45.3657H61.7431V46.2536C61.392 46.5103 60.9222 46.7002 60.2149 46.7002C59.11 46.7002 58.32 45.8995 58.32 44.7242C58.32 43.4616 59.1564 42.7225 60.189 42.7225Z" fill="#58595B"/>
<path d="M3.68485 54.5477C3.12208 55.2816 3.27181 56.3286 4.01012 56.8881C4.74843 57.4424 5.80169 57.2987 6.36446 56.5647C6.92723 55.8308 8.46581 52.0328 7.98565 51.6684C7.50033 51.3091 4.24762 53.8137 3.68485 54.5477Z" fill="#58595B"/>
<path d="M12.3329 51.6992C11.734 51.6016 10.0302 55.3278 9.8805 56.2362C9.73077 57.1447 10.3503 58.0069 11.2642 58.1558C12.178 58.3046 13.0454 57.6887 13.1952 56.7803C13.3449 55.8718 12.9318 51.8018 12.3329 51.6992Z" fill="#58595B"/>
<path d="M2.40443 51.5555C3.24084 51.1551 6.35931 48.4863 6.10116 47.9422C5.83784 47.3982 1.79003 48.1424 0.95362 48.5427C0.11721 48.943 -0.233876 49.9387 0.163677 50.7702C0.566393 51.6017 1.56802 51.9507 2.40443 51.5555Z" fill="#58595B"/>
</svg>
